<svg xmlns="http://www.w3.org/2000/svg" viewBox="0 0 100 100" preserveAspectRatio="xMidYMid" width="107" height="107" style="shape-rendering: auto; display: block; background: rgb(255, 255, 255);" xmlns:xlink="http://www.w3.org/1999/xlink"><g><g transform="rotate(0 50 50)">
  <rect fill="#3caae4" height="12" width="4" ry="6" rx="2" y="24" x="48">
    <animate repeatCount="indefinite" begin="-2.0370370370370368s" dur="2.2222222222222223s" keyTimes="0;1" values="1;0" attributeName="opacity"></animate>
  </rect>
</g><g transform="rotate(30 50 50)">
  <rect fill="#3caae4" height="12" width="4" ry="6" rx="2" y="24" x="48">
    <animate repeatCount="indefinite" begin="-1.8518518518518516s" dur="2.2222222222222223s" keyTimes="0;1" values="1;0" attributeName="opacity"></animate>
  </rect>
</g><g transform="rotate(60 50 50)">
  <rect fill="#3caae4" height="12" width="4" ry="6" rx="2" y="24" x="48">
    <animate repeatCount="indefinite" begin="-1.6666666666666665s" dur="2.2222222222222223s" keyTimes="0;1" values="1;0" attributeName="opacity"></animate>
  </rect>
</g><g transform="rotate(90 50 50)">
  <rect fill="#3caae4" height="12" width="4" ry="6" rx="2" y="24" x="48">
    <animate repeatCount="indefinite" begin="-1.4814814814814814s" dur="2.2222222222222223s" keyTimes="0;1" values="1;0" attributeName="opacity"></animate>
  </rect>
</g><g transform="rotate(120 50 50)">
  <rect fill="#3caae4" height="12" width="4" ry="6" rx="2" y="24" x="48">
    <animate repeatCount="indefinite" begin="-1.2962962962962963s" dur="2.2222222222222223s" keyTimes="0;1" values="1;0" attributeName="opacity"></animate>
  </rect>
</g><g transform="rotate(150 50 50)">
  <rect fill="#3caae4" height="12" width="4" ry="6" rx="2" y="24" x="48">
    <animate repeatCount="indefinite" begin="-1.111111111111111s" dur="2.2222222222222223s" keyTimes="0;1" values="1;0" attributeName="opacity"></animate>
  </rect>
</g><g transform="rotate(180 50 50)">
  <rect fill="#3caae4" height="12" width="4" ry="6" rx="2" y="24" x="48">
    <animate repeatCount="indefinite" begin="-0.9259259259259258s" dur="2.2222222222222223s" keyTimes="0;1" values="1;0" attributeName="opacity"></animate>
  </rect>
</g><g transform="rotate(210 50 50)">
  <rect fill="#3caae4" height="12" width="4" ry="6" rx="2" y="24" x="48">
    <animate repeatCount="indefinite" begin="-0.7407407407407407s" dur="2.2222222222222223s" keyTimes="0;1" values="1;0" attributeName="opacity"></animate>
  </rect>
</g><g transform="rotate(240 50 50)">
  <rect fill="#3caae4" height="12" width="4" ry="6" rx="2" y="24" x="48">
    <animate repeatCount="indefinite" begin="-0.5555555555555555s" dur="2.2222222222222223s" keyTimes="0;1" values="1;0" attributeName="opacity"></animate>
  </rect>
</g><g transform="rotate(270 50 50)">
  <rect fill="#3caae4" height="12" width="4" ry="6" rx="2" y="24" x="48">
    <animate repeatCount="indefinite" begin="-0.37037037037037035s" dur="2.2222222222222223s" keyTimes="0;1" values="1;0" attributeName="opacity"></animate>
  </rect>
</g><g transform="rotate(300 50 50)">
  <rect fill="#3caae4" height="12" width="4" ry="6" rx="2" y="24" x="48">
    <animate repeatCount="indefinite" begin="-0.18518518518518517s" dur="2.2222222222222223s" keyTimes="0;1" values="1;0" attributeName="opacity"></animate>
  </rect>
</g><g transform="rotate(330 50 50)">
  <rect fill="#3caae4" height="12" width="4" ry="6" rx="2" y="24" x="48">
    <animate repeatCount="indefinite" begin="0s" dur="2.2222222222222223s" keyTimes="0;1" values="1;0" attributeName="opacity"></animate>
  </rect>
</g><g></g></g><!-- [ldio] generated by https://loading.io --></svg>